# xmcd
#
# Track frame offsets: 
#        150
#        16510
#        44836
#
# Disc length: 956 seconds
#
# Revision: 0
# Processed by: cddbd v1.5.2PL0 Copyright (c) Steve Scherf et al.
# Submitted via: ExactAudioCopy v1.0b3
#
DISCID=1b03ba03
DTITLE=Massimo Varigotti - Waiting
DYEAR=2001
DGENRE=Italodance
TTITLE0=Waiting (Radio Cut)
TTITLE1=Waiting (The 4 Jays Mix)
TTITLE2=Waiting (Original Mix)
EXTD=
EXTT0=
EXTT1=
EXTT2=
PLAYORDER=
